<?xml version="1.0" encoding="utf-8"?>
<!-- Generator: Adobe Illustrator 23.0.1, SVG Export Plug-In . SVG Version: 6.00 Build 0)  -->
<svg version="1.1" id="Capa_1" xmlns="http://www.w3.org/2000/svg" xmlns:xlink="http://www.w3.org/1999/xlink" x="0px" y="0px"
	 viewBox="0 0 17 17" style="enable-background:new 0 0 17 17;" xml:space="preserve">
<style type="text/css">
	.st0{fill:#FFFFFF;}
</style>
<path class="st0" d="M14,0.6H3c-1.1,0-2,0.9-2,2v11c0,1.1,0.9,2,2,2h5.4l0-5.4H7c-0.2,0-0.3-0.1-0.3-0.3l0-1.7C6.7,8,6.8,7.9,7,7.9
	h1.4V6.2c0-1.9,1.2-3,2.9-3h1.4c0.2,0,0.3,0.1,0.3,0.3V5c0,0.2-0.1,0.3-0.3,0.3l-0.9,0c-0.9,0-1.1,0.4-1.1,1.1v1.4h2.1
	c0.2,0,0.3,0.2,0.3,0.4L12.9,10c0,0.2-0.2,0.3-0.3,0.3h-1.9l0,5.4H14c1.1,0,2-0.9,2-2v-11C16,1.5,15.1,0.6,14,0.6z"/>
</svg>
